<?xml version="1.0" ?><svg data-name="Layer 1" height="88" id="Layer_1" viewBox="0 0 88 88" width="88" xmlns="http://www.w3.org/2000/svg"><title/><path d="M41.88,31.84a2,2,0,0,0-1.94,2h0a2,2,0,0,0,2,2,2,2,0,0,0,2-2v0a2,2,0,0,0-2-2h0Z"/><path d="M41.93,50.16a2,2,0,0,0,2-2v0a2,2,0,0,0-2-2h-.05a2,2,0,0,0-1.93,2v0A2,2,0,0,0,41.93,50.16Z"/><path d="M39.94,41a2,2,0,0,0,2,2,2,2,0,0,0,2-2v0a2,2,0,0,0-2-2h-.05a2,2,0,0,0-1.93,2Z"/><path d="M67.25,19.57a6.82,6.82,0,0,0-.81-2.4,6.17,6.17,0,0,0-3.74-2.85l-.18-.05-7.23-2.15A12.76,12.76,0,0,1,44,18.31a12.62,12.62,0,0,1-11.27-6.23c-3.93,1.12-6.45,1.86-7.57,2.2l-.51.16a5.69,5.69,0,0,0-2.9,2.35,6.67,6.67,0,0,0-1,2.74l-8.39,54.3A1,1,0,0,0,13.29,75h.05c.83.07,8.13.56,11.59.78l1.73.11a.93.93,0,0,0,.94-.83q.07-1,.12-1.92l.18-4L26,68.83l-.33,5L14.55,73q8.07-52.29,8.32-53.63l.05-.22a3.91,3.91,0,0,1,1.77-2.43,28.64,28.64,0,0,1,4.89-1.39L31,15a30.84,30.84,0,0,0,1.83,5.59,13,13,0,0,0,3.58,4.39,11.3,11.3,0,0,0,3.4,1.83,14.62,14.62,0,0,0,4.2.61h2.1V65.63l-21.37-.84,3.21-34H26.07L22.54,65.67a1,1,0,0,0,1.07,1.12l23.32.94a1,1,0,0,0,1.19-1.16v-.84H64.33a1,1,0,0,0,1.12-1.22L62.6,36H60.5l2.42,22H48.13l0-31a.23.23,0,0,1,.14-.07l.2-.06.39-.14a11.19,11.19,0,0,0,4.65-3.29,13.73,13.73,0,0,0,2-3.07,29.42,29.42,0,0,0,1.4-4.54l.19-.76,3.59.9,1.47.38a4,4,0,0,1,2.95,3c.06.25.11.51.15.76l.11.78,8.11,52.25-12.1.77L61,68l-2-.06.4,7a1,1,0,0,0,1.14,1L74.78,75a.94.94,0,0,0,.85-.72,1.62,1.62,0,0,0,0-.62Zm-4.2,41.37.26,2.71H48.13V60.94ZM54.64,16.65a14.68,14.68,0,0,1-1.34,3.46,10.18,10.18,0,0,1-3,3.53,9.52,9.52,0,0,1-3.91,1.6,12.17,12.17,0,0,1-4.34,0,9.64,9.64,0,0,1-4-1.67,10.19,10.19,0,0,1-2.42-2.44,13.82,13.82,0,0,1-2.17-4.93l.75.69a13.87,13.87,0,0,0,4.3,2.55,16.07,16.07,0,0,0,4.6.92,18.07,18.07,0,0,0,3.82-.2,14.32,14.32,0,0,0,4.71-1.62,14.64,14.64,0,0,0,3.06-2.29l0,0,.14-.11Z"/><path d="M61.15,30.81H61a.92.92,0,0,0-.81,1l.21,2.07h2l-.24-2.17A1,1,0,0,0,61.15,30.81Z"/></svg>