<?xml version="1.0" ?><!DOCTYPE svg  PUBLIC '-//W3C//DTD SVG 1.1//EN'  'http://www.w3.org/Graphics/SVG/1.1/DTD/svg11.dtd'><svg enable-background="new 0 0 48 48" height="48px" id="Layer_1" version="1.1" viewBox="0 0 48 48" width="48px" xml:space="preserve" xmlns="http://www.w3.org/2000/svg" xmlns:xlink="http://www.w3.org/1999/xlink"><path d="M41.461,15.639c-0.223,0-0.438,0.035-0.652,0.066v-0.672c0-1.93-1.569-3.5-3.5-3.5H10.691c-1.93,0-3.5,1.57-3.5,3.5v0.652  c-0.215-0.031-0.434-0.048-0.654-0.048c-0.672,0-1.324,0.146-1.936,0.435c-1.58,0.746-2.602,2.357-2.602,4.104V28.7  c0,2.166,1.764,3.93,3.93,3.93h2.992l-1.564,3.113c-0.125,0.246-0.025,0.547,0.221,0.671c0.072,0.036,0.148,0.053,0.225,0.053  c0.184,0,0.359-0.101,0.447-0.274l1.791-3.563h27.918l1.793,3.563c0.088,0.174,0.264,0.274,0.445,0.274  c0.076,0,0.152-0.017,0.225-0.053c0.248-0.124,0.346-0.425,0.223-0.671l-1.565-3.113h2.992c2.168,0,3.93-1.764,3.93-3.93v-8.523  C46,17.675,43.965,15.639,41.461,15.639z M8.191,15.033c0-1.378,1.121-2.5,2.5-2.5h26.618c1.379,0,2.5,1.122,2.5,2.5v0.928  c-1.687,0.664-2.888,2.298-2.888,4.216c0,1.747,1.021,3.358,2.603,4.105c0.086,0.041,0.143,0.128,0.143,0.223v0.578H8.336v-0.578  c0-0.096,0.053-0.182,0.141-0.223c2.264-1.069,3.236-3.779,2.168-6.043c-0.5-1.06-1.395-1.858-2.453-2.275L8.191,15.033  L8.191,15.033z M45,28.7c0,1.615-1.314,2.93-2.93,2.93H5.93C4.315,31.63,3,30.315,3,28.7v-8.523c0-1.363,0.797-2.619,2.029-3.2  c0.477-0.225,0.984-0.339,1.508-0.339c1.363,0,2.621,0.796,3.203,2.029c0.832,1.765,0.074,3.878-1.689,4.71  c-0.436,0.205-0.715,0.647-0.715,1.127v1.078c0,0.276,0.223,0.5,0.5,0.5h32.33c0.275,0,0.5-0.224,0.5-0.5v-1.078  c0-0.479-0.281-0.922-0.715-1.127c-1.232-0.582-2.029-1.838-2.029-3.201c0-1.951,1.588-3.539,3.539-3.539S45,18.224,45,20.176V28.7  L45,28.7z"/><path d="M24,17.015c0.867,0,1.574-0.706,1.574-1.573S24.867,13.867,24,13.867s-1.574,0.706-1.574,1.574S23.133,17.015,24,17.015z   M24,14.867c0.316,0,0.574,0.258,0.574,0.574S24.316,16.015,24,16.015c-0.316,0-0.574-0.257-0.574-0.573  C23.426,15.126,23.684,14.867,24,14.867z"/><path d="M24,21.149c0.867,0,1.574-0.706,1.574-1.574c0-0.867-0.707-1.573-1.574-1.573s-1.574,0.706-1.574,1.573  C22.426,20.443,23.133,21.149,24,21.149z M24,19.002c0.316,0,0.574,0.257,0.574,0.573c0,0.317-0.258,0.574-0.574,0.574  c-0.316,0-0.574-0.257-0.574-0.574C23.426,19.259,23.684,19.002,24,19.002z"/><path d="M31.713,17.015c0.869,0,1.574-0.706,1.574-1.573s-0.705-1.574-1.574-1.574c-0.867,0-1.572,0.706-1.572,1.574  S30.846,17.015,31.713,17.015z M31.713,14.867c0.316,0,0.574,0.258,0.574,0.574s-0.258,0.573-0.574,0.573s-0.572-0.257-0.572-0.573  C31.141,15.126,31.396,14.867,31.713,14.867z"/><path d="M31.713,21.149c0.869,0,1.574-0.706,1.574-1.574c0-0.867-0.705-1.573-1.574-1.573c-0.867,0-1.572,0.706-1.572,1.573  C30.141,20.443,30.846,21.149,31.713,21.149z M31.713,19.002c0.316,0,0.574,0.257,0.574,0.573c0,0.317-0.258,0.574-0.574,0.574  s-0.572-0.257-0.572-0.574C31.141,19.259,31.396,19.002,31.713,19.002z"/><path d="M16.287,17.015c0.867,0,1.574-0.706,1.574-1.573s-0.707-1.574-1.574-1.574s-1.574,0.706-1.574,1.574  S15.42,17.015,16.287,17.015z M16.287,14.867c0.316,0,0.574,0.258,0.574,0.574s-0.258,0.573-0.574,0.573s-0.574-0.257-0.574-0.573  C15.713,15.126,15.971,14.867,16.287,14.867z"/><path d="M16.287,21.149c0.867,0,1.574-0.706,1.574-1.574c0-0.867-0.707-1.573-1.574-1.573s-1.574,0.706-1.574,1.573  C14.713,20.443,15.42,21.149,16.287,21.149z M16.287,19.002c0.316,0,0.574,0.257,0.574,0.573c0,0.317-0.258,0.574-0.574,0.574  s-0.574-0.257-0.574-0.574C15.713,19.259,15.971,19.002,16.287,19.002z"/></svg>